<svg width="257" height="247" viewBox="0 0 257 247" fill="none" xmlns="http://www.w3.org/2000/svg">
<circle cx="125" cy="135" r="86" fill="#D56B29" stroke="black" stroke-width="8"/>
<path d="M246 112.619C233.699 127.769 219.398 131.685 199 130.907L213.304 88.0002C229.61 94.6802 240.527 100.778 246 112.619Z" fill="#A24110" stroke="black" stroke-width="8" stroke-linejoin="round"/>
<path d="M4.00002 109.19C13.9751 124.596 29.7995 130.239 51.8314 129.993C52.5872 115.145 51.0867 103.436 41.4333 87.0002L41.411 87.0094C27.9251 92.5263 12.8938 98.6753 4.00002 109.19Z" fill="#A24110" stroke="black" stroke-width="8" stroke-linejoin="round"/>
<path d="M19.3768 5.00024C-3.68448 49.9973 -8.65914 86.8178 61 109V63.6669C29.968 57.2611 23.0092 39.9383 19.3768 5.00024Z" fill="#7C4132" stroke="black" stroke-width="8" stroke-linejoin="round"/>
<path d="M234.78 5.00024C265.878 56.0355 256.719 87.1056 192 104V61.1002C219.726 55.8651 231.253 46.8506 234.78 5.00024Z" fill="#7C4132" stroke="black" stroke-width="10" stroke-linejoin="round"/>
<path d="M46.4534 221.438C30.0731 189.937 50.1916 145.227 48.9575 123.123C90.4665 46.1142 171.104 48.9895 203.32 127.846C200.093 145.318 218.72 186.355 198.24 222.67L192.664 213.429C184.237 230.418 174.231 238.679 161.687 241.768C208.581 135.097 39.3971 138.565 84.2451 243C69.439 236.368 56.9982 229.681 52.6487 210.349C50.1183 215.339 49.2343 218.623 46.4534 221.438Z" fill="#D56B29" stroke="black" stroke-width="7" stroke-linejoin="round"/>
<ellipse cx="125" cy="188.5" rx="52" ry="30.5" fill="#7C4132"/>
<ellipse cx="11.2562" cy="8.29871" rx="11.2562" ry="8.29871" transform="matrix(0.939722 0.341939 -0.309802 0.950801 96.1419 172)" fill="black"/>
<ellipse cx="11.2562" cy="8.29871" rx="11.2562" ry="8.29871" transform="matrix(-0.939722 0.341939 0.309802 0.950801 152.93 172)" fill="black"/>
<path d="M94.2422 152C83.0859 147.596 74.6329 145.708 69.9999 120.871L40.0001 149.526C39.6279 61.2872 83 24.5002 126 49.4999C167 24.0004 216.892 54.7971 209.32 149.526C192.478 145.68 187.558 135.664 180.105 115.498C179.747 135.273 178.042 144.772 165.808 152C163.349 138.253 152.06 130.876 145.213 121.066C140.249 141.594 136.137 149.422 124.701 152C124.03 140.247 113.798 132.854 108.539 122.727C102.395 133.384 97.7416 142.055 94.2422 152Z" fill="#D56B29" stroke="black" stroke-width="8" stroke-linejoin="round"/>
</svg>
